<?xml version="1.0" encoding="utf-8"?>
<!-- Generator: Adobe Illustrator 24.0.1, SVG Export Plug-In . SVG Version: 6.00 Build 0)  -->
<svg version="1.0" id="Capa_1" xmlns="http://www.w3.org/2000/svg" xmlns:xlink="http://www.w3.org/1999/xlink" x="0px" y="0px"
	 viewBox="0 0 16 16" style="enable-background:new 0 0 16 16;" xml:space="preserve">
<style type="text/css">
	.st0{fill:#B3B3B3;}
</style>
<g id="Capa_1_1_">
</g>
<g id="Capa_2_1_">
</g>
<g id="Capa_3">
</g>
<g>
	<g>
		<path class="st0" d="M8.3,9c-0.6,0-1-0.5-1-1s0.5-1,1-1c0.6,0,1,0.5,1,1S8.9,9,8.3,9z M8.3,7.5C8,7.5,7.8,7.7,7.8,8S8,8.5,8.3,8.5
			S8.8,8.3,8.8,8S8.6,7.5,8.3,7.5z"/>
		<path class="st0" d="M8.3,10.6c-1.4,0-2.6-1.1-2.6-2.6s1.1-2.6,2.6-2.6c1.4,0,2.6,1.1,2.6,2.6S9.7,10.6,8.3,10.6z M8.3,6
			c-1.1,0-2,0.9-2,2s0.9,2,2,2c1.1,0,2-0.9,2-2S9.4,6,8.3,6z"/>
	</g>
	<path class="st0" d="M12.7,13.1V14h-1.5l-0.8-2.6c2.5-1,3.6-3.3,3.7-3.3L14.1,8L14,7.9c-0.1-0.2-2-3.7-5.7-3.7
		C7.4,4.2,6.7,4.4,6,4.6l-0.7-3H3.3v-1H0.7v2.3h2.7V2.1h1.5l0.7,2.7c-2.1,1.1-3.1,3-3.1,3L2.4,8l0.1,0.1c0.1,0.2,2,3.7,5.7,3.7
		c0.6,0,1.2-0.1,1.7-0.2l0.9,2.9h1.9v0.9h2.7v-2.3H12.7z M2.8,2.4H1.2V1.1h1.7V2.4z M3,8c0.3-0.6,2.1-3.3,5.3-3.3
		c3,0,4.8,2.7,5.2,3.3c-0.3,0.6-2.1,3.3-5.3,3.3C5.2,11.3,3.4,8.6,3,8z M14.8,14.9h-1.7v-1.3h1.7V14.9z"/>
	<g>
		<g>
			<rect x="1.8" y="14.9" class="st0" width="2.2" height="0.5"/>
			<rect x="0.7" y="14.9" class="st0" width="0.5" height="0.5"/>
		</g>
		<g>
			<rect x="1.8" y="13.6" class="st0" width="2.2" height="0.5"/>
			<rect x="0.7" y="13.6" class="st0" width="0.5" height="0.5"/>
		</g>
	</g>
	<g>
		<g>
			<rect x="13.2" y="1.9" class="st0" width="2.2" height="0.5"/>
			<rect x="12" y="1.9" class="st0" width="0.5" height="0.5"/>
		</g>
		<g>
			<rect x="13.2" y="0.6" class="st0" width="2.2" height="0.5"/>
			<rect x="12" y="0.6" class="st0" width="0.5" height="0.5"/>
		</g>
	</g>
</g>
</svg>
