<?xml version="1.0" encoding="utf-8"?>
<!-- Generator: Adobe Illustrator 24.0.1, SVG Export Plug-In . SVG Version: 6.00 Build 0)  -->
<svg version="1.0" id="Capa_1" xmlns="http://www.w3.org/2000/svg" xmlns:xlink="http://www.w3.org/1999/xlink" x="0px" y="0px"
	 viewBox="0 0 16 16" style="enable-background:new 0 0 16 16;" xml:space="preserve">
<style type="text/css">
	.st0{fill:#B3B3B3;}
</style>
<g id="Capa_1_1_">
</g>
<g id="Capa_2_1_">
</g>
<g id="Capa_3">
</g>
<g>
	<g>
		<path class="st0" d="M3.4,14.9H0.8V9.5h2.6V14.9z M1.3,14.4h1.6V9.9H1.3V14.4z"/>
		<path class="st0" d="M3.4,14.2L3,13.9l1-1c0.1-0.1,0.2-0.1,0.3-0.1h6.5l3.9-3.9L14,8.2l-2.7,2.7v0.1H7.7v-0.5h3.2V9.8H4.4L3.3,11
			L3,10.7l1.1-1.2c0.1-0.1,0.2-0.1,0.3-0.1h6.4c0.2,0,0.4,0.2,0.4,0.4v0.5l2.4-2.4c0.2-0.2,0.5-0.2,0.6,0l0.7,0.7
			c0.1,0.1,0.1,0.2,0.1,0.3s0,0.2-0.1,0.3l-4,4H4.4L3.4,14.2z"/>
	</g>
	<g>
		<path class="st0" d="M7.8,7.7c-1.8,0-3.3-1.5-3.3-3.3s1.5-3.3,3.3-3.3s3.3,1.5,3.3,3.3S9.6,7.7,7.8,7.7z M7.8,1.6
			c-1.6,0-2.8,1.3-2.8,2.8c0,1.6,1.3,2.8,2.8,2.8s2.8-1.3,2.8-2.8C10.6,2.8,9.3,1.6,7.8,1.6z"/>
		<path class="st0" d="M7.3,5.7c-0.1,0-0.1,0-0.2-0.1L6.4,4.9c-0.1-0.1-0.1-0.2,0-0.3s0.2-0.1,0.3,0l0.5,0.5l1.6-1.9
			c0.1-0.1,0.2-0.1,0.3,0c0.1,0.1,0.1,0.2,0,0.3L7.5,5.6C7.4,5.7,7.4,5.7,7.3,5.7C7.3,5.7,7.3,5.7,7.3,5.7z"/>
	</g>
</g>
</svg>
