<?xml version="1.0" encoding="utf-8"?>
<!-- Generator: Adobe Illustrator 24.0.1, SVG Export Plug-In . SVG Version: 6.00 Build 0)  -->
<svg version="1.0" id="Capa_1" xmlns="http://www.w3.org/2000/svg" xmlns:xlink="http://www.w3.org/1999/xlink" x="0px" y="0px"
	 viewBox="0 0 16 16" style="enable-background:new 0 0 16 16;" xml:space="preserve">
<style type="text/css">
	.st0{fill:#EAAD4A;}
</style>
<g>
	<path class="st0" d="M6,2.3c0.1,0,0.1-0.1,0.1-0.1c0,0,0,0,0-0.1c0,0,0-0.1,0-0.1C6,2,6,1.9,6,1.9c0,0,0,0-0.1-0.1c0,0-0.1,0-0.1,0
		l-0.1,0l0.2,0.5L6,2.3z"/>
	<path class="st0" d="M9.9,1.9C10,1.9,10,1.9,9.9,1.9C10,1.8,10,1.8,10,1.8c0,0,0,0-0.1,0l-0.2,0L9.7,1.9l0.2,0
		C9.9,1.9,9.9,1.9,9.9,1.9z"/>
	<path class="st0" d="M3.5,3.4C3.5,3.4,3.5,3.4,3.5,3.4C3.5,3.3,3.4,3.3,3.4,3.3c0,0,0,0-0.1,0L3.2,3.5l0.2,0.2L3.5,3.4
		C3.5,3.5,3.5,3.5,3.5,3.4z"/>
	<polygon class="st0" points="2.2,5.7 1.8,5.7 1.8,5.7 2.1,5.9 	"/>
	<path class="st0" d="M11.4,3C11.4,3,11.4,3,11.4,3c0.1,0.1,0.1,0.1,0.1,0.1c0,0,0,0,0.1,0c0,0,0,0,0.1,0c0,0,0.1-0.1,0.1-0.1
		c0-0.1,0.1-0.1,0.1-0.1c0,0,0,0,0-0.1c0,0,0,0,0-0.1c0,0,0,0,0-0.1c0,0,0,0-0.1,0c0,0,0,0-0.1,0c0,0,0,0-0.1,0c0,0-0.1,0.1-0.1,0.1
		c0,0.1-0.1,0.1-0.1,0.1C11.4,2.9,11.4,2.9,11.4,3C11.4,3,11.4,3,11.4,3z"/>
	<path class="st0" d="M14.1,6.3l0,0.2c0,0,0,0.1,0.1,0.1c0,0,0.1,0,0.1,0c0,0,0.1,0,0.1-0.1c0,0,0-0.1,0-0.1l0-0.2L14.1,6.3z"/>
	<path class="st0" d="M6.8,1.8C6.8,1.8,6.8,1.8,6.8,1.8c0.1-0.1,0.1-0.1,0.1-0.1c0,0,0,0,0-0.1c0,0,0,0,0,0c0,0-0.1,0-0.1,0l-0.2,0
		l0,0.2L6.8,1.8z"/>
	<polygon class="st0" points="10.5,2 10.5,2 10.3,2.2 10.5,2.3 	"/>
	<path class="st0" d="M8,0.7C4,0.7,0.7,4,0.7,8S4,15.3,8,15.3c4,0,7.3-3.3,7.3-7.3S12,0.7,8,0.7z M14,4.9l0.2,0.5l-0.1,0L14,5.2
		l-0.6,0.3l0-0.1l0.6-0.3L14,4.9L14,4.9z M13.8,4.6c0,0.1,0.1,0.2,0.1,0.2l-0.1,0c0-0.1,0-0.1,0-0.2c0,0,0-0.1-0.1-0.1
		c0,0-0.1,0-0.1,0c0,0,0,0,0,0.1c0,0,0,0.1,0,0.1c0,0,0,0,0,0.1c0,0.1,0,0.1,0,0.2c0,0-0.1,0.1-0.1,0.1c-0.1,0.1-0.2,0-0.3-0.1
		c-0.1-0.1-0.1-0.2-0.1-0.3l0.1,0c0,0.1,0,0.2,0,0.2C13.3,5,13.3,5,13.4,5c0,0,0.1-0.1,0-0.1c0,0,0-0.1,0-0.1c0-0.1,0-0.1,0-0.2
		c0,0,0-0.1,0.1-0.1c0.1,0,0.1,0,0.2,0C13.7,4.5,13.7,4.5,13.8,4.6z M13.6,4.3L13.6,4.3L13.3,4l-0.2,0.1l0.2,0.2l-0.1,0.1L13,4.2
		l-0.2,0.1L13,4.7L13,4.7l-0.3-0.4l0.6-0.5L13.6,4.3z M12.9,3.4l0.3,0.4l-0.1,0.1L13,3.7l-0.5,0.4l-0.1-0.1l0.5-0.4L12.9,3.4
		L12.9,3.4z M12.3,2.8l-0.1,0.6l0,0l0.4-0.4l0.1,0.1l-0.5,0.6L12,3.6L12.1,3l0,0l-0.4,0.4l-0.1-0.1L12.3,2.8L12.3,2.8z M11.5,2.5
		c0,0,0.1,0,0.1,0c0,0,0.1,0,0.1,0c0,0,0.1,0.1,0.1,0.1c0,0,0,0.1,0,0.1c0,0,0,0,0,0.1c0,0,0,0.1-0.1,0.2c0,0.1-0.1,0.1-0.1,0.1
		c0,0,0,0-0.1,0c0,0-0.1,0-0.1,0c0,0-0.1,0-0.1,0c0,0-0.1-0.1-0.1-0.1c0,0,0-0.1,0-0.1c0,0,0,0,0,0c0,0,0,0,0,0c0,0,0-0.1,0.1-0.2
		C11.4,2.6,11.5,2.5,11.5,2.5C11.5,2.5,11.5,2.5,11.5,2.5z M11.5,2.3l-0.4,0.7L11,2.9L11.5,2.3L11.5,2.3z M10.8,2L10.8,2l0.5,0.1
		l0,0.1L11,2.2l-0.3,0.6l-0.1-0.1l0.3-0.6L10.8,2z M9.9,1.6c0.1,0,0.1,0,0.1,0.1c0,0.1,0,0.1,0,0.2C10.1,2,10,2,9.9,2L10,2.4
		l0.5-0.6l0.1,0l0,0.8l-0.1,0l0-0.2l-0.3-0.1l-0.1,0.1l-0.1,0l0,0l-0.1,0L9.8,2L9.6,2L9.6,2.3l-0.1,0l0.2-0.7L9.9,1.6z M9,1.4
		l0.5,0.1l0,0.1l-0.2,0L9.2,2.2l-0.1,0l0.1-0.7L9,1.5L9,1.4z M8.5,1.3l0.5,0l0,0.1l-0.4,0l0,0.2l0.3,0l0,0.1l-0.3,0l0,0.2l0.4,0
		l0,0.1l-0.5,0L8.5,1.3z M7.7,1.3l0.1,0l0.3,0.6l0,0l0-0.5l0.1,0l0,0.8l-0.1,0L7.8,1.5l0,0l0,0.5l-0.1,0L7.7,1.3z M7.6,1.3l0,0.1
		l-0.4,0l0,0.2l0.3,0l0,0.1l-0.3,0l0,0.2l0.4,0l0,0.1l-0.5,0L7.1,1.4L7.6,1.3z M6.7,1.5C6.7,1.4,6.7,1.4,6.7,1.5c0.1,0,0.1,0,0.2,0
		c0,0,0,0,0.1,0.1c0,0,0,0.1,0,0.1c0,0.1,0,0.1,0,0.2c0,0.1-0.1,0.1-0.2,0.1l-0.2,0l0.1,0.3l-0.1,0L6.4,1.5L6.7,1.5z M5.7,1.7
		c0.1,0,0.2,0,0.3,0c0,0,0,0,0.1,0.1c0,0,0,0.1,0.1,0.2c0,0.1,0,0.1,0,0.2c0,0,0,0,0,0c0,0,0,0,0,0c0,0,0,0.1-0.1,0.1
		c0,0-0.1,0.1-0.1,0.1L5.8,2.5L5.5,1.8L5.7,1.7z M5.4,1.9L5.4,1.9L5.1,2.1l0.1,0.2l0.3-0.1l0,0.1L5.2,2.4l0.1,0.2l0.3-0.2l0,0.1
		L5.3,2.8L4.9,2.1L5.4,1.9z M4.8,2.1l0.4,0.7L5,2.9L4.8,2.1L4.8,2.1z M4.6,2.3L4.6,2.3L4.3,2.5l0.1,0.2l0.3-0.2l0.1,0.1L4.5,2.8
		l0.2,0.3L4.6,3.2L4.2,2.5L4.6,2.3z M4,2.6l0.5,0.6L4.4,3.3L4,2.6L4,2.6z M3.9,2.7L3.9,2.7L3.8,3l0.4,0.5L4.1,3.5L3.7,3L3.5,3.2
		L3.5,3.1L3.9,2.7z M3.2,3.3c0,0,0.1-0.1,0.1-0.1c0.1,0,0.1,0,0.2,0.1c0.1,0.1,0.1,0.2,0,0.3L4,3.6L3.9,3.7L3.5,3.6L3.4,3.7L3.7,4
		L3.6,4L3,3.5L3.2,3.3z M2.9,3.6L2.9,3.6L2.8,4L3,4.1l0.2-0.2l0.1,0.1L3,4.2l0.2,0.1L3.4,4l0.1,0.1L3.2,4.5L2.6,4L2.9,3.6z M2.4,4.3
		c0-0.1,0.1-0.1,0.2-0.1c0.1,0,0.1,0,0.2,0L2.7,4.3c0,0-0.1,0-0.1,0C2.6,4.3,2.5,4.3,2.4,4.3c0.1,0.1,0.1,0.1,0.1,0.1c0,0,0,0,0,0.1
		c0,0,0,0,0,0.1c0,0,0.1,0.1,0.1,0.1s0.1,0.1,0.1,0.1c0,0,0,0,0.1,0c0,0,0,0,0.1,0c0,0,0,0,0.1,0c0-0.1,0-0.1,0-0.2L3,4.4
		c0.1,0.1,0.1,0.1,0.1,0.2c0,0.1,0,0.1,0,0.2c0,0-0.1,0.1-0.1,0.1c0,0-0.1,0-0.1,0c0,0,0,0,0,0c0,0,0,0,0,0c0,0-0.1,0-0.2-0.1
		c-0.1,0-0.1-0.1-0.1-0.1c0,0,0,0,0-0.1c0,0,0-0.1,0-0.1C2.4,4.4,2.4,4.3,2.4,4.3z M2.1,6.9C2.1,6.9,2,6.9,2,7c0,0,0,0,0,0
		c0,0,0,0,0,0c0,0-0.1,0-0.2,0c-0.1,0-0.1,0-0.2,0c0,0-0.1,0-0.1,0c0,0-0.1-0.1-0.1-0.1c0,0,0-0.1,0-0.2c0-0.1,0.1-0.1,0.1-0.2
		c0.1,0,0.1-0.1,0.2,0l0,0.1c0,0-0.1,0-0.1,0c0,0,0,0-0.1,0.1c0,0,0,0,0,0.1c0,0,0,0,0,0.1c0,0,0,0,0.1,0c0,0,0.1,0,0.1,0
		c0.1,0,0.1,0,0.2,0c0,0,0.1,0,0.1,0C2,6.8,2,6.8,2.1,6.9c-0.1-0.1,0-0.1,0-0.2c0,0,0-0.1,0-0.1c0,0-0.1-0.1-0.1-0.1l0,0l0,0.1
		l-0.1,0l0.1-0.3l0.2,0c0.1,0,0.1,0.1,0.2,0.1c0,0.1,0.1,0.1,0,0.2C2.2,6.8,2.1,6.9,2.1,6.9z M2.3,6.4L1.5,6.2l0-0.1l0.7,0.2
		L2.3,6.4z M2.5,5.8l-0.2,0L2.2,6l0.1,0.1l0,0.1L1.7,5.7l0-0.1l0.8,0L2.5,5.8z M2.4,5.5C2.4,5.5,2.4,5.5,2.4,5.5
		C2.4,5.5,2.4,5.5,2.4,5.5c-0.1,0-0.2,0-0.2-0.1C2.1,5.4,2.1,5.4,2,5.4c0,0,0,0-0.1-0.1c0,0,0-0.1,0-0.1c0,0,0-0.1,0-0.2
		C2,5,2,4.9,2.1,4.9c0.1,0,0.1,0,0.2,0L2.2,5c0,0-0.1,0-0.1,0c0,0-0.1,0-0.1,0.1c0,0,0,0,0,0.1c0,0,0,0,0,0.1c0,0,0,0,0,0.1
		c0,0,0.1,0,0.1,0.1c0.1,0,0.1,0.1,0.1,0.1c0,0,0,0,0.1,0c0,0,0,0,0.1,0c0,0,0,0,0-0.1c0-0.1,0-0.1,0-0.2l0.1-0.1
		c0.1,0,0.1,0.1,0.1,0.2c0,0.1,0,0.1,0,0.2c0,0.1-0.1,0.1-0.1,0.1C2.5,5.5,2.5,5.5,2.4,5.5z M8,13.4C5,13.4,2.6,11,2.6,8
		S5,2.6,8,2.6c3,0,5.4,2.4,5.4,5.4S11,13.4,8,13.4z M13.5,5.7l0.7-0.3l0.2,0.4l-0.1,0l-0.1-0.3L14,5.7L14.1,6L14,6l-0.1-0.3
		l-0.2,0.1l0.1,0.3l-0.1,0L13.5,5.7z M14.4,6.6c-0.1,0-0.2,0-0.2-0.1l-0.3,0.3l0-0.1l0.3-0.2l0-0.1l-0.3,0.1l0-0.1l0.7-0.2l0.1,0.3
		c0,0.1,0,0.1,0,0.2C14.5,6.6,14.4,6.6,14.4,6.6z"/>
	<polygon class="st0" points="10,2.4 10,2.4 10,2.4 	"/>
	<path class="st0" d="M4.6,8.3H5v0.5c0,0-0.6,0.2-0.9-0.3C4,8.4,3.9,8.2,3.9,7.9c0.1-1.1,1.5-0.6,1.5-0.6l0.2-0.5c0,0-0.4-0.2-1-0.1
		C4.1,6.7,3.4,7,3.3,8C3.2,9.1,4.1,9.3,4.6,9.4c0.5,0,1.1-0.2,1.1-0.2V7.8h-1V8.3z"/>
	<polygon class="st0" points="8.7,6.6 8.3,6.6 8.3,9.3 8.7,9.3 9,9.3 10,9.3 10,8.8 9,8.8 9,8.2 9.9,8.2 9.9,7.7 9,7.7 9,7.2 
		10,7.2 10,6.6 9,6.6 	"/>
	<polygon class="st0" points="11,6.6 10.9,6.6 10.4,6.6 10.4,9.3 11,9.3 11,7.5 11.9,9.3 12,9.3 12.6,9.3 12.6,6.6 12,6.6 12,8.3 
		11.1,6.6 	"/>
	<path class="st0" d="M7.6,6.8C7.2,6.5,6,6.6,6,6.6v2.7h0.6V8.4c0.4,0,0.8,0,1-0.2C8,8,8.3,7.2,7.6,6.8z M7.4,7.6
		C7.3,8,6.7,7.9,6.7,7.9V7.1c0,0,0.3-0.1,0.6,0.1c0.1,0,0.1,0.1,0.1,0.1C7.4,7.4,7.4,7.5,7.4,7.6z"/>
</g>
</svg>
