<?xml version="1.0" encoding="utf-8"?>
<!-- Generator: Adobe Illustrator 25.4.1, SVG Export Plug-In . SVG Version: 6.00 Build 0)  -->
<svg version="1.1" id="Capa_1" xmlns="http://www.w3.org/2000/svg" xmlns:xlink="http://www.w3.org/1999/xlink" x="0px" y="0px"
	 viewBox="0 0 16 16" style="enable-background:new 0 0 16 16;" xml:space="preserve">
<g id="Capa_1_1_">
</g>
<g id="Capa_2_1_">
</g>
<g id="Capa_3">
</g>
<path d="M1.2,4.6c0-0.1,0.1-0.2,0.1-0.3C1.7,3.6,2.2,3,2.7,2.4c0.3-0.3,0.7-0.7,1-1C4.2,1,4.7,1.3,5,1.6c0.6,0.9,1.2,1.8,1.7,2.8
	c0.1,0.1,0.1,0.3,0.2,0.5c0.1,0.3,0,0.5-0.2,0.7C6.5,5.7,6.2,6,6,6.2C5.7,6.4,5.7,6.4,5.8,6.8c0.7,1.7,1.9,2.8,3.6,3.5
	c0.1,0.1,0.2,0,0.3-0.1c0.2-0.3,0.4-0.5,0.6-0.7c0.3-0.3,0.6-0.4,1-0.2c0.5,0.2,1,0.5,1.4,0.7c0.5,0.3,1.1,0.7,1.6,1
	c0.2,0.1,0.3,0.4,0.4,0.6c0,0.1,0,0.3-0.1,0.4c-0.1,0.2-0.2,0.3-0.3,0.4c-0.7,0.9-1.6,1.6-2.6,2.2c-0.3,0.2-0.7,0.2-1,0.1
	c-1.2-0.2-2.3-0.8-3.4-1.4c-2.2-1.4-3.9-3.2-5.2-5.4C1.8,7,1.5,6.1,1.3,5.2C1.2,5,1.2,4.8,1.2,4.6z"/>
</svg>
