<?xml version="1.0" encoding="utf-8"?>
<!-- Generator: Adobe Illustrator 24.0.1, SVG Export Plug-In . SVG Version: 6.00 Build 0)  -->
<svg version="1.0" id="Capa_1" xmlns="http://www.w3.org/2000/svg" xmlns:xlink="http://www.w3.org/1999/xlink" x="0px" y="0px"
	 viewBox="0 0 16 16" style="enable-background:new 0 0 16 16;" xml:space="preserve">
<style type="text/css">
	.st0{fill:#EAAD4A;}
</style>
<g id="Capa_1_1_">
</g>
<g id="Capa_2_1_">
</g>
<g id="Capa_3">
</g>
<g>
	<path class="st0" d="M8,15.4l-0.3-0.1c-1.8-0.9-4.3-2.7-5.5-5.7C0.7,6.1,1.4,2.1,1.5,2l0.2-0.9l0.7,0.5c0,0,1.1,0.6,2.9,0.4
		c1.7-0.2,2.2-0.7,2.3-0.7L8,0.6l0.4,0.7C8.5,1.3,9.1,1.8,10.7,2c1.8,0.2,2.9-0.4,2.9-0.4l0.7-0.5L14.5,2c0,0.2,0.7,4.2-0.8,7.7
		c-1.3,3-3.7,4.7-5.5,5.7L8,15.4z M2.5,2.9C2.4,4.2,2.3,6.9,3.3,9.2c1.1,2.5,3.1,4.1,4.7,4.9c1.6-0.9,3.6-2.4,4.7-4.9
		c1-2.3,0.9-5,0.8-6.3c-0.6,0.2-1.6,0.4-2.9,0.2C9.2,3,8.4,2.6,8,2.4C7.6,2.6,6.8,3,5.4,3.1C4.1,3.3,3.2,3.1,2.5,2.9z M8.4,1.2
		L8.4,1.2L8.4,1.2z M7.6,1.2L7.6,1.2L7.6,1.2z"/>
	<g>
		<g>
			<path class="st0" d="M6.2,7.5C6.2,7.5,6.2,7.5,6.2,7.5C6,7.4,6,7.3,6,7.1c0.2-0.5,0.8-0.9,1.5-1C8.3,6.1,9,6.4,9.4,7
				c0.1,0.1,0,0.3-0.1,0.3C9.2,7.5,9.1,7.4,9,7.3C8.7,6.8,8.1,6.6,7.5,6.7C7,6.7,6.6,7,6.5,7.3C6.4,7.4,6.3,7.5,6.2,7.5z"/>
			<path class="st0" d="M5.3,6.9C5.3,6.9,5.2,6.9,5.3,6.9C5.1,6.8,5,6.7,5.1,6.6c0.3-0.8,1.2-1.4,2.3-1.5C8.5,5,9.6,5.5,10.3,6.4
				c0.1,0.1,0,0.3-0.1,0.3c-0.1,0.1-0.3,0-0.3-0.1C9.3,5.9,8.4,5.5,7.4,5.6C6.5,5.7,5.8,6.1,5.5,6.8C5.5,6.8,5.4,6.9,5.3,6.9z"/>
			<path class="st0" d="M4.5,6.2C4.5,6.2,4.4,6.2,4.5,6.2C4.3,6.1,4.2,6,4.3,5.9c0.4-1,1.5-1.8,2.9-1.9c1.6-0.2,3,0.5,3.8,1.7
				c0.1,0.1,0,0.3-0.1,0.3c-0.1,0.1-0.3,0-0.3-0.1c-0.7-1.1-2-1.7-3.4-1.5C6,4.6,5.1,5.2,4.7,6.1C4.7,6.2,4.6,6.2,4.5,6.2z"/>
		</g>
		<g>
			<path class="st0" d="M4.4,8L5,8l0.6,1.5h0L6.1,8l0.5,0l-0.9,2.2l-0.4,0L4.4,8z"/>
			<path class="st0" d="M6.8,8l0.8,0C7.8,8,7.9,8,8,8c0.1,0,0.2,0.1,0.3,0.1c0.1,0.1,0.1,0.1,0.2,0.2c0,0.1,0.1,0.2,0.1,0.3
				c0,0.1,0,0.2-0.1,0.3c0,0.1-0.1,0.2-0.2,0.2C8.2,9.2,8.1,9.3,8,9.3c-0.1,0-0.2,0-0.3,0l-0.4,0l0,0.9l-0.5,0L6.8,8z M7.3,8.9
				l0.3,0c0,0,0.1,0,0.1,0c0,0,0.1,0,0.1,0c0,0,0.1,0,0.1-0.1c0,0,0-0.1,0-0.1c0-0.1,0-0.1,0-0.1c0,0-0.1-0.1-0.1-0.1
				c0,0-0.1,0-0.1,0c-0.1,0-0.1,0-0.1,0l-0.3,0L7.3,8.9z"/>
			<path class="st0" d="M8.8,8l0.7,0l0.9,1.5h0l0-1.5l0.5,0l0,2.2l-0.6,0l-1-1.6h0l0,1.6l-0.5,0L8.8,8z"/>
		</g>
	</g>
</g>
</svg>
